<svg width="36" height="32" viewBox="0 0 36 32" fill="blue" xmlns="http://www.w3.org/2000/svg">
<path fill-rule="evenodd" clip-rule="evenodd" d="M20.5978 30.858C11.4113 32.3088 2.71317 26.0678 1.20388 16.9415C0.187205 10.7943 1.97887 5.47654 6.52893 1.13611C6.6356 1.03422 6.88714 0.949722 7.08875 0.948479C9.25897 0.936053 11.4298 0.933568 13.6006 0.933568C13.9629 0.933568 14.3254 0.933723 14.6879 0.933879C15.0504 0.934034 15.413 0.934189 15.7752 0.934189L17.9473 0.934811L20.3246 0.933568C23.1034 0.931083 25.9795 0.929219 28.8058 0.955314C29.0665 0.957177 29.4192 1.09821 29.6066 1.27653C33.3262 4.79311 35.1647 9.16646 35.0716 14.2754C34.9194 22.5804 28.8316 29.5545 20.5978 30.858ZM30.2404 0.596821C29.8816 0.258211 29.3082 0.0270857 28.8138 0.0233579C25.9832 -0.00273688 23.1046 -0.00149427 20.324 0.00161225L17.9473 0.00285486L15.7758 0.00223355C12.8781 0.000990944 9.98032 -0.000251662 7.08259 0.0165235C6.74472 0.0190088 6.23115 0.136435 5.89267 0.458892C1.10585 5.0261 -0.778913 10.6234 0.290784 17.0949C1.72917 25.787 9.34406 32 17.9355 32C18.8616 32 19.7993 31.9279 20.7408 31.7782C29.4198 30.4051 35.8349 23.0507 35.9965 14.2922C36.0945 8.90924 34.1573 4.30166 30.2404 0.596821ZM20.8353 9.90248C22.1984 10.2927 23.7885 9.47263 23.978 8.14537C24.065 7.53515 23.8856 6.81426 23.585 6.26289C23.4946 6.09246 23.0879 6.07379 22.6942 6.05572L22.6942 6.05572L22.6942 6.05572L22.6942 6.05571L22.6942 6.05571L22.6942 6.05571C22.5397 6.04862 22.3872 6.04162 22.2567 6.02558C22.0998 6.00728 21.94 6.01243 21.7807 6.01757C21.7062 6.01998 21.6317 6.02238 21.5577 6.02238C21.4229 6.02238 21.2874 6.02629 21.1519 6.0302C20.8454 6.03904 20.5387 6.04788 20.2388 6.01151C19.6255 5.93667 19.361 6.23283 19.1649 6.72535C18.6447 8.03855 19.3972 9.49118 20.8353 9.90248ZM9.96523 15.1402C9.33064 15.126 8.82273 14.6315 8.81087 14.0194C8.79652 13.3802 9.33127 12.8593 9.9983 12.8593C10.6653 12.858 11.2007 13.3771 11.1901 14.0157C11.1782 14.6556 10.6366 15.1537 9.96523 15.1402ZM12.9996 14.0687C13.0258 12.382 11.65 10.9841 9.9802 11.0001C8.35537 11.0149 7.01257 12.3524 7.00009 13.9652C6.98761 15.6174 8.33228 16.9858 9.9827 16.9999C11.5969 17.0116 12.9747 15.6741 12.9996 14.0687ZM22.0175 22.1414C21.3291 22.1488 20.8586 21.6851 20.8586 21.0009C20.8586 20.316 21.3291 19.8517 22.0175 19.8597C22.6734 19.8683 23.1248 20.3111 23.1395 20.9639C23.1562 21.6555 22.6992 22.1328 22.0175 22.1414ZM21.9609 18.0005C20.3838 18.0301 19.0118 19.4126 19.0001 20.9842C18.9872 22.5737 20.4097 24.0012 22.0028 24C23.5983 23.9975 25.0153 22.57 24.9999 20.9793C24.982 19.3824 23.5429 17.9697 21.9609 18.0005ZM12.8105 20.9683C12.7874 21.6032 13.3197 22.134 13.985 22.1414C14.6522 22.1482 15.1976 21.6303 15.1939 20.9985C15.1889 20.3598 14.6484 19.8518 13.98 19.8604C13.3434 19.869 12.8311 20.3525 12.8105 20.9683ZM11 20.9868C11.0044 19.3708 12.3274 18.0339 13.9575 18.0006C15.5926 17.9667 16.9912 19.3339 17 20.9769C17.0093 22.6267 15.6544 23.9951 14.0056 24C12.3599 24.0049 10.995 22.6372 11 20.9868ZM15.5753 9.72214C14.6145 10.1948 13.6995 10.0516 12.9085 9.39013C12.1287 8.73624 11.808 7.91191 12.1156 6.89876C12.3018 6.28162 12.6048 5.91539 13.3407 6.01677C13.5961 6.05126 13.8585 6.04244 14.1211 6.03361L14.1211 6.03361C14.2396 6.02963 14.3582 6.02564 14.4761 6.02564L14.8028 6.0255C15.0212 6.02536 15.2401 6.02522 15.4592 6.02564C16.5513 6.02564 16.9933 6.41088 16.9999 7.48992C17.0078 8.498 16.5185 9.26087 15.5753 9.72214ZM17.9613 15.1408C17.2833 15.1229 16.835 14.6366 16.8603 13.9441C16.8849 13.2712 17.3825 12.8268 18.0752 12.8606C18.7187 12.8933 19.1498 13.3605 19.1399 14.0216C19.1307 14.7025 18.6516 15.1568 17.9613 15.1408ZM20.9996 13.965C20.9712 12.3626 19.526 10.9591 17.9471 11.0009C16.3658 11.0446 15 12.4334 15 13.9995C15 15.5926 16.428 17.0134 18.0173 16.9999C19.6147 16.9845 21.0285 15.5471 20.9996 13.965ZM26.0178 15.1397C26.7008 15.1317 27.156 14.6547 27.1412 13.9647C27.1246 13.2857 26.6399 12.8358 25.9476 12.8592C25.2985 12.8807 24.8606 13.3405 24.8606 13.9985C24.8594 14.6836 25.3293 15.1471 26.0178 15.1397ZM25.9353 16.9986C24.3507 16.9457 22.9902 15.5527 23.0001 13.9887C23.0081 12.3932 24.443 10.9787 26.0277 11.0002C27.6284 11.0236 29.0362 12.4671 28.9993 14.0453C28.9623 15.6512 27.512 17.0497 25.9353 16.9986ZM19.8096 26.0383C24.6475 25.2798 27.9808 22.4686 29.5336 17.8152C31.0951 13.1355 30.0453 8.88658 26.7064 5.25321C26.5263 5.05843 26.1756 4.92483 25.9046 4.92358C20.5978 4.90486 15.2903 4.9061 9.98224 4.92109C9.75705 4.92234 9.47309 5.0447 9.31533 5.20889C6.99661 7.6149 5.81683 10.5016 5.82487 13.8628C5.82487 14.0016 5.82051 14.1408 5.81615 14.2799C5.80688 14.5762 5.7976 14.8722 5.83044 15.1644C6.61056 22.2133 12.8683 27.1258 19.8096 26.0383ZM28.1676 2.00003C28.6372 1.99754 28.9707 2.13301 29.2893 2.47699C33.5988 7.11422 35.0657 12.5293 33.2153 18.608C31.3741 24.6586 27.1994 28.4125 21.0469 29.6736C12.2224 31.4809 3.75856 25.5988 2.25151 16.5978C1.33838 11.1384 2.92461 6.35883 6.79864 2.39958C7.01517 2.17733 7.41234 2.02875 7.72724 2.02625C10.3857 2.00683 13.045 2.00856 15.7044 2.01028C16.4642 2.01078 17.2241 2.01127 17.9839 2.01127C18.7383 2.01127 19.4927 2.01164 20.2471 2.01201C22.8878 2.01331 25.5288 2.0146 28.1676 2.00003Z" fill="#4B4B4B"/>
</svg>
