<svg xmlns="http://www.w3.org/2000/svg" viewBox="0 0 490.468 490.468" height="800px" width="800px" transform="rotate(270)"><g xmlns="http://www.w3.org/2000/svg" transform="matrix(-1 0 0 -1 490.468 490.468)"><g>	<g>		<path d="M487.341,109.641L380.674,2.975c-4.267-4.053-10.987-3.947-15.04,0.213c-3.947,4.16-3.947,10.667,0,14.827l88.427,88.427    h-336.96c-5.867,0-10.667,4.8-10.667,10.667v336.96l-88.427-88.427c-4.267-4.053-10.987-3.947-15.04,0.213    c-3.947,4.16-3.947,10.667,0,14.827l106.667,106.667c4.16,4.16,10.88,4.16,15.04,0l106.667-106.667    c4.053-4.267,3.947-10.987-0.213-15.04c-4.16-3.947-10.667-3.947-14.827,0l-88.533,88.533V127.881h326.293l-88.427,88.427    c-4.8,4.693-4.267,12.693,1.6,16.64c3.733,2.453,8.64,2.24,12.16-0.427c0.427-0.32,0.853-0.747,1.28-1.173l106.667-106.667    C491.501,120.628,491.501,113.801,487.341,109.641z"></path>	</g></g></g></svg>