<?xml version="1.0" encoding="iso-8859-1"?>
<!-- Uploaded to: SVG Repo, www.svgrepo.com, Generator: SVG Repo Mixer Tools -->
<svg version="1.1" id="Layer_1" xmlns="http://www.w3.org/2000/svg" xmlns:xlink="http://www.w3.org/1999/xlink" 
	 viewBox="0 0 512 512" xml:space="preserve">
<path style="fill:#88888F;" d="M67.765,361.412H22.588V210.824c0-78.883,64.176-143.059,143.059-143.059h135.529v45.176H165.647
	c-53.972,0-97.882,43.91-97.882,97.882V361.412z"/>
<path style="fill:#7AB9E8;" d="M90.353,466.824H0v-75.294c0-24.951,20.226-45.176,45.176-45.176h45.176l77.121-77.121
	C175.946,260.76,187.437,256,199.418,256h113.163c11.981,0,23.472,4.76,31.944,13.232l77.122,77.121h45.176
	c24.951,0,45.176,20.226,45.176,45.176v75.294h-90.353"/>
<path style="fill:#579ADF;" d="M466.824,346.353h-45.176l-77.121-77.121C336.054,260.76,324.563,256,312.582,256H256v210.824
	h165.647H512v-75.294C512,366.578,491.775,346.353,466.824,346.353z"/>
<g>
	<rect x="361.412" y="22.588" style="fill:#AEADB3;" width="90.353" height="45.176"/>
	<rect x="361.412" y="112.941" style="fill:#AEADB3;" width="90.353" height="45.176"/>
</g>
<path style="fill:#56545A;" d="M376.471,0c-49.9,0-90.353,40.453-90.353,90.353s40.453,90.353,90.353,90.353V0z"/>
<circle style="fill:#88888F;" cx="135.529" cy="466.824" r="45.176"/>
<circle style="fill:#56545A;" cx="376.471" cy="466.824" r="45.176"/>
</svg>